<?xml version="1.0" encoding="iso-8859-1"?>
<!-- Generator: Adobe Illustrator 19.0.0, SVG Export Plug-In . SVG Version: 6.00 Build 0)  -->
<svg version="1.1" id="Layer_1" xmlns="http://www.w3.org/2000/svg" xmlns:xlink="http://www.w3.org/1999/xlink" x="0px" y="0px"
	 viewBox="0 0 452 452" style="enable-background:new 0 0 452 452;" xml:space="preserve">
<g>
	<path style="fill:#37495E;" d="M231.494,373.527c44.736-16.184,71.991-31.47,114.004-31.47c1.677,0,3.366,0.025,5.028,0.076
		c27.787,0.824,52.892,8.768,76.749,24.288L452,382.506V79.331l-7.275-4.732c-28.922-18.815-59.424-28.448-93.242-29.451
		c-1.974-0.06-3.988-0.09-5.986-0.09c-47.624,0-79.524,16.967-124.881,33.375l-0.108,0.04
		c-44.736,16.184-71.991,31.47-114.005,31.47c-1.677,0-3.366-0.025-5.028-0.076c-27.787-0.824-52.892-8.769-76.749-24.288L0,69.494
		v303.175l7.275,4.732c28.922,18.815,59.424,28.448,93.242,29.451c1.974,0.06,3.988,0.09,5.986,0.09
		c47.624,0,79.524-16.967,124.881-33.375L231.494,373.527z"/>
	<path style="fill:#D1D5D8;" d="M351,61.14c-46.67-1.41-78.34,15.48-125,32.36s-78.33,33.77-125,32.36
		c-28.33-0.84-56.67-8.44-85-26.87v265c28.33,18.43,56.67,26.03,85,26.87c46.67,1.41,78.34-15.48,125-32.36s78.33-33.77,125-32.36
		c28.33,0.84,56.67,8.44,85,26.87v-265C407.67,69.58,379.33,61.98,351,61.14z"/>
	<path style="fill:#EFEFEF;" d="M101,125.86v265c-28.33-0.84-56.67-8.44-85-26.87v-265C44.33,117.42,72.67,125.02,101,125.86z"/>
	<path style="fill:#EFEFEF;" d="M351,61.14v265c-46.67-1.41-78.34,15.48-125,32.36v-265C272.66,76.62,304.33,59.73,351,61.14z"/>
	<path style="fill:#F4A026;" d="M177,223c0,26.234-47.5,79.5-47.5,79.5S82,249.234,82,223c0-26.234,21.267-47.5,47.5-47.5
		S177,196.766,177,223z"/>
	<circle style="fill:#EFEFEF;" cx="129.5" cy="223" r="17.5"/>
	<path style="fill:#F4A026;" d="M369,162c0,26.234-47.5,79.5-47.5,79.5S274,188.234,274,162c0-26.234,21.267-47.5,47.5-47.5
		S369,135.766,369,162z"/>
	<circle style="fill:#EFEFEF;" cx="321.5" cy="162" r="17.5"/>
	<path style="fill:#37495E;" d="M126.91,337.43c-4.38-0.61-7.44-4.64-6.83-9.02l0,0c0.59-4.37,4.63-7.44,9.01-6.84l0,0
		c4.38,0.61,7.44,4.64,6.83,9.02l0,0c-0.55,4.01-3.97,6.91-7.91,6.91l0,0C127.65,337.5,127.28,337.48,126.91,337.43z M153.81,329.72
		c-0.85-4.34,1.99-8.54,6.32-9.38l0,0c4.34-0.85,8.54,1.99,9.38,6.32l0,0c0.84,4.34-1.99,8.54-6.33,9.38l0,0
		c-0.51,0.1-1.02,0.15-1.53,0.15l0,0C157.9,336.19,154.55,333.54,153.81,329.72z M186.56,321.29c-1.62-4.11,0.4-8.75,4.51-10.37l0,0
		c4.11-1.63,8.76,0.39,10.38,4.5l0,0c1.62,4.11-0.4,8.76-4.51,10.38l0,0c-0.96,0.38-1.96,0.56-2.93,0.56l0,0
		C190.82,326.36,187.8,324.44,186.56,321.29z M217.72,308.05c-1.9-3.99-0.21-8.76,3.78-10.67l0,0c3.98-1.9,8.76-0.21,10.66,3.78l0,0
		c1.9,3.99,0.21,8.76-3.78,10.66l0,0c-1.11,0.53-2.28,0.79-3.43,0.79l0,0C221.96,312.61,219.09,310.92,217.72,308.05z
		 M248.27,293.39c-1.82-4.02-0.04-8.76,3.98-10.59l0,0c4.03-1.83,8.77-0.04,10.59,3.98l0,0c1.83,4.02,0.05,8.76-3.97,10.59l0,0
		c-1.08,0.49-2.2,0.72-3.309,0.72l0,0C252.52,298.09,249.61,296.34,248.27,293.39z M279.4,280.05c-1.35-4.21,0.96-8.72,5.16-10.07
		l0,0c4.21-1.36,8.72,0.96,10.07,5.16l0,0c1.35,4.21-0.96,8.71-5.16,10.07l0,0c-0.82,0.26-1.64,0.39-2.46,0.39l0,0
		C283.63,285.6,280.49,283.44,279.4,280.05z M312.11,271.38c-0.28-4.41,3.06-8.21,7.47-8.49l0,0l0,0l0,0
		c4.41-0.29,8.21,3.06,8.5,7.47l0,0c0.28,4.41-3.06,8.21-7.47,8.49l0,0c-0.18,0.02-0.35,0.02-0.53,0.02l0,0
		C315.9,278.87,312.38,275.62,312.11,271.38z"/>
</g>
<g>
</g>
<g>
</g>
<g>
</g>
<g>
</g>
<g>
</g>
<g>
</g>
<g>
</g>
<g>
</g>
<g>
</g>
<g>
</g>
<g>
</g>
<g>
</g>
<g>
</g>
<g>
</g>
<g>
</g>
</svg>
